<?xml version="1.0" encoding="UTF-8"?>
<!DOCTYPE svg PUBLIC "-//W3C//DTD SVG 1.1//EN" "http://www.w3.org/Graphics/SVG/1.1/DTD/svg11.dtd">
<svg xmlns="http://www.w3.org/2000/svg" version="1.1" width="500px" height="500px" style="shape-rendering:geometricPrecision; text-rendering:geometricPrecision; image-rendering:optimizeQuality; fill-rule:evenodd; clip-rule:evenodd" xmlns:xlink="http://www.w3.org/1999/xlink">
<g><path style="opacity:0.924" fill="#4c4d4c" d="M 98.5,76.5 C 106.965,84.4643 115.298,92.631 123.5,101C 115.625,109.21 107.458,117.044 99,124.5C 90.5,117.333 82.6667,109.5 75.5,101C 82.9925,92.6741 90.6591,84.5074 98.5,76.5 Z"/></g>
<g><path style="opacity:0.966" fill="#4c4d4c" d="M 175.5,102.5 C 190.16,130.796 194.993,160.796 190,192.5C 186.683,209.806 178.683,224.473 166,236.5C 165.333,267.167 165.333,297.833 166,328.5C 166.916,346.055 176.082,353.222 193.5,350C 199.738,346.972 204.571,342.472 208,336.5C 214.026,320.494 223.193,306.661 235.5,295C 253.144,283.81 270.81,283.81 288.5,295C 306.207,310.954 312.874,330.787 308.5,354.5C 328.79,354.264 347.457,348.764 364.5,338C 368.203,334.633 371.536,330.966 374.5,327C 366.847,326.181 359.18,325.514 351.5,325C 327.942,321.443 315.609,307.776 314.5,284C 314.968,264.744 321.968,248.41 335.5,235C 350.55,224.949 366.216,223.949 382.5,232C 391.195,238.207 397.361,246.373 401,256.5C 405.169,267.843 408.002,279.509 409.5,291.5C 421.195,292.861 432.862,292.694 444.5,291C 448.843,289.99 452.01,287.49 454,283.5C 455.913,278.174 456.746,272.674 456.5,267C 455.862,255.009 454.196,243.175 451.5,231.5C 461.121,229.72 470.621,227.386 480,224.5C 480.945,224.905 481.612,225.572 482,226.5C 488.527,246.423 490.193,266.756 487,287.5C 481.028,310.469 466.195,322.969 442.5,325C 430.825,326.236 419.159,326.403 407.5,325.5C 402.106,348.737 388.44,365.237 366.5,375C 350.492,381.836 333.825,385.503 316.5,386C 313.894,376.071 311.06,366.237 308,356.5C 304.089,372.744 293.922,382.577 277.5,386C 257.214,388.625 239.547,383.125 224.5,369.5C 209.963,382.886 192.963,387.386 173.5,383C 151.545,378.31 138.712,364.81 135,342.5C 133.741,312.525 133.074,282.525 133,252.5C 111.653,257.217 90.1532,257.717 68.5,254C 29.1475,243.699 10.1475,218.033 11.5,177C 11.9028,152.891 17.4028,130.057 28,108.5C 38.5589,113.074 49.0589,117.74 59.5,122.5C 51.7082,139.667 47.3749,157.667 46.5,176.5C 45.777,200.6 57.1104,215.1 80.5,220C 95.644,222.411 110.644,221.744 125.5,218C 127.949,217.275 130.283,216.275 132.5,215C 133.444,212.281 133.777,209.448 133.5,206.5C 137.182,206.665 140.848,206.499 144.5,206C 151.659,197.533 155.492,187.7 156,176.5C 157.42,155.014 152.92,134.847 142.5,116C 143.444,114.523 144.777,113.523 146.5,113C 156.456,109.962 166.123,106.462 175.5,102.5 Z M 357.5,260.5 C 363.477,260.071 367.977,262.404 371,267.5C 374.888,275.387 377.055,283.721 377.5,292.5C 370.492,292.666 363.492,292.5 356.5,292C 350.233,291.234 346.899,287.734 346.5,281.5C 347.029,275.413 348.862,269.746 352,264.5C 353.5,262.531 355.333,261.198 357.5,260.5 Z M 259.5,320.5 C 267.933,320.429 273.433,324.429 276,332.5C 281.657,350.507 275.49,357.007 257.5,352C 251.247,348.742 245.914,344.409 241.5,339C 245.109,330.228 251.109,324.061 259.5,320.5 Z"/></g>
<g><path style="opacity:0.919" fill="#4c4d4c" d="M 433.5,167.5 C 440.146,173.812 446.813,180.145 453.5,186.5C 460.152,180.348 466.652,174.015 473,167.5C 480.681,175.014 488.181,182.681 495.5,190.5C 488.5,198.167 481.167,205.5 473.5,212.5C 466.833,206.167 460.167,199.833 453.5,193.5C 446.848,199.652 440.348,205.985 434,212.5C 426.5,205 419,197.5 411.5,190C 419.036,182.632 426.369,175.132 433.5,167.5 Z"/></g>
</svg>
